<svg width="35" height="35" viewBox="0 0 35 35" fill="none" xmlns="http://www.w3.org/2000/svg">
<path opacity="0.987" fill-rule="evenodd" clip-rule="evenodd" d="M15.7697 2.32088C17.3556 2.14369 18.294 2.14369 19.9981 2.32088C23.0145 2.76734 25.8108 4.16163 27.9825 6.30213C26.5149 7.6893 25.0667 9.09673 23.6381 10.524C20.9023 8.20525 17.8485 7.67005 14.4769 8.91838C12.0035 10.0559 10.2812 11.8992 9.30998 14.4484C7.72282 13.2668 6.15633 12.0576 4.61123 10.8215C4.50385 10.765 4.38121 10.7443 4.26123 10.7624C6.71561 6.03015 10.551 3.21557 15.7675 2.31869" fill="#F44336"/>
<path opacity="0.997" fill-rule="evenodd" clip-rule="evenodd" d="M4.25694 10.7623C4.3809 10.7434 4.49829 10.7631 4.60913 10.8214C6.15423 12.0575 7.72071 13.2667 9.30788 14.4483C9.05812 15.4415 8.90068 16.4557 8.83756 17.478C8.89152 18.4667 9.04829 19.4372 9.30788 20.3895L4.37506 24.3161C2.22694 19.8273 2.18756 15.3094 4.25694 10.7623Z" fill="#FFC107"/>
<path opacity="0.999" fill-rule="evenodd" clip-rule="evenodd" d="M27.7484 29.0719C26.2125 27.7173 24.6045 26.4467 22.9315 25.2656C24.6086 24.0814 25.6265 22.4569 25.9853 20.3919H17.7668V14.6847C22.5064 14.6453 27.2438 14.6854 31.979 14.805C32.8774 19.6831 31.8398 24.0814 28.8662 28C28.5126 28.3758 28.1381 28.7336 27.7484 29.0719Z" fill="#448AFF"/>
<path opacity="0.993" fill-rule="evenodd" clip-rule="evenodd" d="M9.30781 20.392C11.1016 24.8501 14.3901 26.9311 19.1734 26.6351C20.5162 26.4797 21.8036 26.0106 22.9316 25.2657C24.6057 26.4499 26.2114 27.7186 27.7484 29.072C25.313 31.2605 22.2077 32.559 18.9394 32.7557C18.1968 32.8151 17.4507 32.8151 16.7081 32.7557C11.1402 32.0995 7.02917 29.2863 4.375 24.3163L9.30781 20.392Z" fill="#43A047"/>
</svg>
