<svg width="133" height="114" viewBox="0 0 133 114" fill="none" xmlns="http://www.w3.org/2000/svg">
<path d="M67.6494 11.1406C82.504 -3.71351 106.588 -3.71378 121.442 11.1406C136.297 25.995 136.297 50.079 121.442 64.9336L75.7178 110.658C75.6483 110.728 75.5777 110.796 75.5068 110.863C71.1072 115.046 64.1907 115.046 59.791 110.863C59.7202 110.796 59.6496 110.728 59.5801 110.658L13.8555 64.9336L13.5098 64.584C-0.997988 49.7035 -0.882822 25.879 13.8555 11.1406C28.5938 -3.59771 52.4183 -3.71284 67.2988 10.7949L67.6494 11.1406Z" fill="#E64060"/>
<path d="M110.743 36.5919C114.902 36.5919 118.274 39.9637 118.274 44.1232C118.274 48.2827 114.902 51.6544 110.743 51.6544C106.583 51.6544 103.212 48.2826 103.212 44.1232C103.212 39.9637 106.583 36.592 110.743 36.5919Z" fill="#FAFAFA" stroke="#FAFAFA" stroke-width="0.152149"/>
<path d="M108.459 43.9374L105.088 44.0351C96.9979 44.2696 90.561 50.8959 90.561 58.9897V69.6965C90.561 72.4707 88.2305 74.6754 85.4605 74.5215C83.0365 74.3868 81.0887 72.4746 80.9094 70.0535L80.1095 59.2542C79.8597 55.8831 77.0518 53.2755 73.6715 53.2755C70.1061 53.2755 67.2159 56.1657 67.2159 59.7311V68.4498C67.2159 71.6731 64.6029 74.2861 61.3796 74.2861C58.1563 74.2861 55.5433 71.6731 55.5433 68.4498V53.077C55.5433 48.7721 58.8054 45.1676 63.089 44.7392C67.5669 44.2914 70.8915 40.3865 70.6193 35.8944L70.1895 28.803C69.8304 22.8786 64.9211 18.2578 58.9858 18.2578C52.7869 18.2578 47.7616 23.2831 47.7616 29.482V69.4225C47.7616 72.1086 45.5841 74.2861 42.898 74.2861C40.212 74.2861 38.0345 72.1086 38.0345 69.4225V43.9374V37.1284C38.0345 34.4424 35.857 32.2649 33.1709 32.2649C30.4848 32.2649 28.3074 34.4424 28.3074 37.1284V38.1011C28.3074 41.3244 25.6944 43.9374 22.4711 43.9374H21.3038H2.33447" stroke="#FAFAFA" stroke-width="4.66901" stroke-linecap="round"/>
<path d="M45.4272 64.9484V29.4822C45.4274 21.9941 51.4974 15.9241 58.9855 15.924C66.1552 15.924 72.0854 21.5055 72.5193 28.662L72.9494 35.7539C73.2973 41.4973 69.0466 46.4901 63.3212 47.0626C60.2311 47.3716 57.8779 49.9718 57.8778 53.0773V68.0612C57.8777 69.3504 56.8327 70.3953 55.5436 70.3955C54.2543 70.3955 53.2086 69.3505 53.2086 68.0612V53.0773C53.2086 47.5731 57.3799 42.9641 62.8569 42.4164C66.087 42.0932 68.4854 39.2766 68.2891 36.0362L67.8589 28.9443C67.5744 24.2523 63.6862 20.5924 58.9855 20.5924C54.076 20.5926 50.0959 24.5727 50.0957 29.4822V64.9484C50.0957 66.2377 49.0508 67.2826 47.7615 67.2826C46.4722 67.2826 45.4272 66.2377 45.4272 64.9484Z" fill="#FFF4B8"/>
<path d="M43.144 29.4816C43.1444 20.7335 50.2365 13.6414 58.9846 13.641C67.3609 13.641 74.2899 20.1623 74.7971 28.5231L75.2271 35.6162L75.2501 36.2662C75.3247 42.9559 70.2758 48.661 63.5478 49.3339C61.6246 49.5263 60.1596 51.144 60.1594 53.0768V68.0613C60.1592 70.611 58.0927 72.6778 55.5437 72.6782C53.075 72.6782 51.0566 70.7397 50.9319 68.3006C50.1048 69.0832 48.9896 69.5649 47.761 69.5649C45.2113 69.5648 43.144 67.4977 43.144 64.948V29.4816ZM45.4269 64.948C45.4269 66.2372 46.4717 67.2819 47.761 67.282C49.0503 67.282 50.095 66.2373 50.095 64.948V29.4816C50.0954 24.5725 54.0756 20.5924 58.9846 20.592C63.6853 20.592 67.5744 24.2521 67.8589 28.9441L68.2889 36.0359C68.4852 39.2761 66.0868 42.0928 62.8568 42.4161L62.3475 42.4789C57.1233 43.252 53.2086 47.7445 53.2084 53.0768V68.0613L53.2199 68.2993C53.3313 69.3982 54.2056 70.2722 55.3044 70.3839L55.5437 70.3954C56.7522 70.3949 57.7456 69.4764 57.865 68.2993L57.8778 68.0613V53.0768C57.878 50.0685 60.0861 47.5347 63.0334 47.0983L63.3213 47.0625C69.0463 46.4897 73.2969 41.4973 72.9493 35.7544L72.5194 28.6613C72.0853 21.5051 66.1541 15.9239 58.9846 15.9239C51.4969 15.9243 45.4273 21.9939 45.4269 29.4816V64.948ZM52.3779 47.1099C54.3405 43.3193 58.1188 40.5959 62.629 40.1448C64.6399 39.9436 66.1333 38.1909 66.0111 36.1741L65.5812 29.0823C65.3697 25.5948 62.4784 22.8748 58.9846 22.8748C55.336 22.8752 52.3783 25.833 52.3779 29.4816V47.1099Z" fill="#E64060"/>
<path d="M53.209 68.4499V51.7194C53.209 50.4301 54.2539 49.3851 55.5432 49.3851C56.8325 49.3851 57.8775 50.4301 57.8775 51.7194V68.4499C57.8775 70.3839 59.4456 71.952 61.3796 71.952C63.3135 71.952 64.881 70.3838 64.881 68.4499V59.731C64.8811 54.8766 68.8167 50.9417 73.6712 50.9415C78.2738 50.9415 82.0975 54.4917 82.4376 59.0817L83.2378 69.8815C83.3305 71.1328 84.337 72.1208 85.5898 72.1905C87.0216 72.27 88.2264 71.1305 88.2264 69.6965V57.945C88.2264 56.6558 89.2715 55.6102 90.5607 55.61C91.85 55.61 92.8957 56.6557 92.8957 57.945V69.6965C92.8957 73.8108 89.4392 77.0804 85.3313 76.8523C81.7363 76.6526 78.8471 73.8169 78.5811 70.2262L77.781 59.4272C77.6216 57.2751 75.8291 55.61 73.6712 55.61C71.3954 55.6102 69.5504 57.4552 69.5502 59.731V68.4499C69.5502 72.9625 65.8922 76.6205 61.3796 76.6205C56.867 76.6205 53.209 72.9625 53.209 68.4499Z" fill="#FFF4B8"/>
<path d="M57.8771 68.4508V51.7196C57.877 50.4303 56.8323 49.3855 55.543 49.3855C54.2539 49.3856 53.2091 50.4304 53.209 51.7196V68.4508L53.2192 68.8705C53.4309 73.0487 56.7815 76.3982 60.9597 76.6097L61.3795 76.6213C65.7511 76.6212 69.321 73.1878 69.5397 68.8705L69.5499 68.4508V59.7314C69.5501 57.4556 71.3958 55.611 73.6716 55.6109L74.0709 55.6301C76.0466 55.8208 77.6311 57.4105 77.7806 59.4281L78.5816 70.2269C78.8477 73.8175 81.7368 76.6532 85.3317 76.8529C89.3112 77.0736 92.6789 74.0118 92.8854 70.0798L92.8956 69.6972V57.945C92.8954 56.6559 91.8494 55.6109 90.5603 55.6109C89.2714 55.6113 88.2264 56.6561 88.2262 57.945V69.6972L88.2121 69.962C88.0745 71.2684 86.9323 72.2655 85.5902 72.1912L85.3586 72.1669C84.2151 71.9965 83.3252 71.0547 83.2382 69.8814L82.4371 59.0826C82.1076 54.636 78.5094 51.1643 74.1003 50.9518L73.6716 50.9415C68.8172 50.9417 64.8807 54.8769 64.8805 59.7314V68.4508L64.8626 68.8078C64.6836 70.5738 63.1927 71.9518 61.3795 71.9519V68.9089C61.6319 68.9089 61.8373 68.7047 61.8376 68.4508V59.7314C61.8378 53.1961 67.137 47.8987 73.6716 47.8986C79.3064 47.8988 84.0718 51.8526 85.2331 57.2169C85.5887 54.5924 87.837 52.5683 90.5603 52.568L90.8379 52.5744C93.6789 52.7187 95.9384 55.0682 95.9386 57.945V69.6972C95.9384 75.5584 91.0146 80.2155 85.1628 79.8907C80.0418 79.6062 75.9252 75.5666 75.5463 70.4509L74.7465 59.652C74.7047 59.0889 74.2354 58.6541 73.6716 58.6539C73.0765 58.6539 72.5931 59.136 72.5929 59.7314V68.4508C72.5926 74.6438 67.5724 79.6642 61.3795 79.6642C55.1865 79.6642 50.1663 74.6437 50.166 68.4508V51.7196C50.1661 48.7498 52.5733 46.3426 55.543 46.3425C58.5129 46.3425 60.92 48.7497 60.9201 51.7196V68.4508C60.9203 68.7039 61.1263 68.9088 61.3795 68.9089V71.9519C59.5662 71.9518 58.0741 70.5739 57.895 68.8078L57.8771 68.4508Z" fill="#E64060"/>
</svg>
